Format : MPEG-4
Format profile : Base Media
Codec ID : isom
File size : 378 MiB
Duration : 13mn 34s
Overall bit rate mode : Variable
Overall bit rate : 3 893 Kbps
Writing application : Lavf52.64.2

Video
ID : 1
Format : AVC
Format/Info : Advanced Video Codec
Format profile : High@L4.0
Format settings, CABAC : Yes
Format settings, ReFrames : 4 frames
Codec ID : avc1
Codec ID/Info : Advanced Video Coding
Duration : 13mn 34s
Bit rate mode : Variable
Bit rate : 3 868 Kbps
Width : 1 920 pixels
Height : 1 080 pixels
Display aspect ratio : 16:9
Frame rate mode : Constant
Frame rate : 25.000 fps
Color space : YUV
Chroma subsampling : 4:2:0
Bit depth : 8 bits
Scan type : Progressive
Bits/(Pixel*Frame) : 0.075
Stream size : 373 MiB (99%)

Audio
ID : 2
Format : AAC
Format/Info : Advanced Audio Codec
Format profile : LC
Codec ID : 40
Duration : 13mn 34s
Bit rate mode : Variable
Bit rate : 50.3 Kbps
Channel(s) : 2 channels
Channel positions : Front: L R
Sampling rate : 44.1 KHz
Compression mode : Lossy
Delay relative to video : -1ms
Stream size : 4.89 MiB (1%)


SCREENSHOT.......
 
http://www.pixsor.com/share-D38B_502F9132.html